<svg width="20" height="20" viewBox="0 0 20 20" fill="none" xmlns="http://www.w3.org/2000/svg">
<g opacity="0.8">
<path d="M19.9399 5.87712C19.8912 4.81266 19.7221 4.08572 19.4749 3.44973C19.2239 2.78246 18.8303 2.17806 18.3215 1.67848C17.8221 1.16975 17.2176 0.775915 16.5503 0.524754C15.9142 0.277712 15.1874 0.108796 14.1229 0.0604253C13.0565 0.0115968 12.7158 0 10 0C7.28424 0 6.94351 0.0115968 5.87708 0.0601201C4.81262 0.108796 4.08585 0.277865 3.44971 0.525059C2.78244 0.776068 2.17804 1.16975 1.67847 1.67848C1.16974 2.1779 0.775909 2.78231 0.52475 3.44958C0.27771 4.08572 0.108795 4.81266 0.0604248 5.87697C0.0115967 6.94356 0 7.28414 0 9.99992C0 12.7159 0.0115967 13.0566 0.0604248 14.123C0.108948 15.1873 0.278015 15.9143 0.525208 16.5504C0.776215 17.2175 1.16989 17.8221 1.67862 18.3215C2.17804 18.8303 2.78259 19.2239 3.44986 19.4749C4.08585 19.7223 4.81277 19.8912 5.87723 19.9399C6.94382 19.9886 7.28439 20 10.0002 20C12.7159 20 13.0566 19.9886 14.1231 19.9399C15.1875 19.8912 15.9143 19.7223 16.5504 19.4749C17.8937 18.9555 18.9555 17.8937 19.4749 16.5504C19.7223 15.9143 19.8912 15.1873 19.9399 14.123C19.9884 13.0564 20 12.7159 20 10.0001C20 7.28414 19.9884 6.94356 19.9399 5.87712ZM18.1398 14.0411C18.0954 15.0161 17.9324 15.5456 17.7956 15.8979C17.4591 16.7701 16.7699 17.4594 15.8977 17.7959C15.5454 17.9327 15.0159 18.0957 14.0408 18.1401C12.9866 18.1883 12.6703 18.1984 10 18.1984C7.32956 18.1984 7.0134 18.1883 5.95901 18.1401C4.98413 18.0957 4.45465 17.9327 4.10217 17.7959C3.66791 17.6355 3.27499 17.3799 2.95242 17.0477C2.62024 16.7251 2.36465 16.3324 2.20428 15.8979C2.06741 15.5456 1.90445 15.0161 1.86005 14.0411C1.81198 12.9867 1.80176 12.6704 1.80176 10.0002C1.80176 7.32992 1.81198 7.01376 1.86005 5.95921C1.9046 4.98417 2.06741 4.45468 2.20428 4.10236C2.36465 3.66794 2.62039 3.27502 2.95242 2.95245C3.27499 2.62026 3.66791 2.36467 4.10233 2.20445C4.45465 2.06743 4.98413 1.90462 5.95917 1.86006C7.01355 1.812 7.32986 1.80177 10 1.80177C12.6701 1.80177 12.9863 1.812 14.0408 1.86021C15.0159 1.90462 15.5452 2.06758 15.8977 2.20445C16.3319 2.36483 16.7249 2.62041 17.0474 2.95245C17.3796 3.27502 17.6352 3.66794 17.7954 4.10236C17.9324 4.45468 18.0954 4.98417 18.1398 5.95921C18.1879 7.0136 18.1981 7.32992 18.1981 10.0001C18.1981 12.6704 18.188 12.9865 18.1398 14.0411Z" fill="white"/>
<path d="M9.99985 4.86484C7.16385 4.86484 4.86481 7.16405 4.86481 10.0001C4.86481 12.8361 7.16385 15.1352 9.99985 15.1352C12.836 15.1352 15.135 12.8361 15.135 10.0001C15.135 7.16405 12.836 4.86484 9.99985 4.86484ZM9.99985 13.3334C8.15903 13.3332 6.66657 11.8409 6.66672 9.99992C6.66672 8.15909 8.15903 6.66661 10 6.66661C11.841 6.66677 13.3333 8.15909 13.3333 9.99992C13.3333 11.8409 11.8408 13.3334 9.99985 13.3334Z" fill="white"/>
<path d="M16.5379 4.66205C16.5379 5.32475 16.0007 5.86201 15.338 5.86201C14.6751 5.86201 14.1379 5.32475 14.1379 4.66205C14.1379 3.99921 14.6751 3.46194 15.338 3.46194C16.0007 3.46194 16.5379 3.99921 16.5379 4.66205Z" fill="white"/>
</g>
</svg>
