<svg width="214" height="43" viewBox="0 0 214 43" fill="none" xmlns="http://www.w3.org/2000/svg">
<path d="M0 30.977C2.54568 28.3985 4.86701 26.0771 7.14646 23.7109C7.74474 23.0887 8.42678 23.0558 9.1866 23.0558C16.7648 23.0558 24.0439 23.0558 31.6221 23.0558C33.055 23.0558 34.2246 22.1494 34.2246 20.6537C34.2246 19.4571 33.055 18.4221 31.6221 18.4221C25.6393 18.4221 19.7612 18.4221 13.7784 18.4221C12.0914 18.4328 10.4268 18.0356 8.92634 17.2644C6.27596 15.9004 4.98069 13.3756 5.6358 10.459C5.94624 9.0605 6.43168 7.7067 7.08065 6.42958C8.81865 3.08519 11.8938 1.49975 15.3668 0.668139C17.1032 0.265477 18.8792 0.0587761 20.6616 0.0519103C29.232 -0.00791777 37.8053 0.0249876 46.3877 0.0219962H48.0928C47.68 0.500621 47.4496 0.802753 47.1804 1.07198C45.2121 3.04631 43.2048 4.98773 41.2724 6.99795C40.9744 7.32487 40.6076 7.58163 40.1984 7.74975C39.7893 7.91786 39.3479 7.99314 38.9062 7.97016C32.1795 7.93825 25.4508 7.93825 18.7202 7.97016C17.9801 7.98906 17.245 8.09652 16.5305 8.29024C15.3339 8.58938 14.9899 9.60944 14.7356 10.6325C14.5771 11.3026 15.3339 12.1581 16.1446 12.2658C17.13 12.4046 18.1231 12.4825 19.1181 12.4991C25.1009 12.547 31.0837 12.559 37.0665 12.5979C38.9622 12.6011 40.8163 13.155 42.4031 14.1923C44.4971 15.5564 44.9817 17.7311 44.548 19.9896C43.3215 26.3553 39.3459 29.8612 33.052 30.6719C31.2294 30.8868 29.395 30.9868 27.5598 30.9711C18.8369 30.998 10.1169 30.9711 1.39399 30.9711L0 30.977Z" fill="white"/>
<path d="M46.9259 18.4091C46.561 14.9959 45.493 12.1272 42.6781 10.0332C43.1687 9.53065 43.5756 9.11484 43.9764 8.70502C46.6178 6.06062 49.2682 3.4222 51.8946 0.765834C52.1033 0.523951 52.3619 0.330216 52.6526 0.198002C52.9434 0.0657888 53.2594 -0.00175462 53.5788 3.46413e-05C65.69 0.0219716 77.8022 0.0299492 89.9154 0.0239664C90.1095 0.0415536 90.3024 0.0715285 90.4927 0.113708C90.1936 0.466694 89.9513 0.762843 89.688 1.02908C87.7526 2.9705 85.7812 4.87602 83.8937 6.86231C83.5737 7.23078 83.1744 7.52184 82.7256 7.71357C82.2769 7.90529 81.7905 7.99267 81.3031 7.96913C71.8832 7.92426 62.4573 7.9452 53.0403 7.9452C52.6425 7.9452 52.2416 7.9123 51.8438 7.9452C50.1776 8.11272 49.0498 10.0661 49.8485 11.5349C50.0759 11.9477 50.6442 12.2409 51.1199 12.4323C51.5147 12.5819 52.0173 12.5011 52.451 12.5011C60.1778 12.5011 67.9046 12.4832 75.6284 12.531C77.6634 12.5023 79.6973 12.6394 81.7099 12.9408C84.2257 13.3746 86.3227 14.5742 86.921 17.3502C87.1178 18.122 87.1594 18.9253 87.0436 19.7134C85.9458 25.2924 83.1548 28.9419 77.2318 30.3448C75.3963 30.7606 73.5199 30.9683 71.6379 30.9641C62.218 31.0239 52.7921 30.991 43.3781 30.991C42.9503 30.991 40.7277 30.9521 40.1205 30.9252C43.9764 29.1662 45.2956 26.103 46.1302 23.1475C55.7894 23.1475 65.1374 23.0667 74.6054 23.0667C76.469 23.0667 77.6686 22.4688 77.6686 20.7843C77.6686 18.9954 75.9814 18.451 74.2644 18.451C65.7927 18.4311 57.3171 18.4311 48.8374 18.451L46.9259 18.4091Z" fill="#FF6915"/>
<path d="M100.6 12.504H105.232C105.072 13.448 105.264 14.144 105.808 14.592C106.16 14.912 106.832 15.072 107.824 15.072C108.64 15.072 109.256 14.944 109.672 14.688C110.296 14.304 110.608 13.768 110.608 13.08C110.608 12.536 110.376 12.128 109.912 11.856C109.64 11.68 109.112 11.504 108.328 11.328L106.888 11.016C105.352 10.696 104.264 10.28 103.624 9.768C102.728 9.016 102.28 8.008 102.28 6.744C102.28 5.08 102.856 3.712 104.008 2.64C105.32 1.376 107.248 0.743999 109.792 0.743999C111.776 0.743999 113.296 1.104 114.352 1.824C115.536 2.624 116.128 3.744 116.128 5.184C116.128 5.376 116.112 5.616 116.08 5.904H111.736C111.848 5.376 111.688 4.928 111.256 4.56C110.904 4.288 110.312 4.152 109.48 4.152C108.728 4.152 108.144 4.288 107.728 4.56C107.28 4.864 107.056 5.28 107.056 5.808C107.056 6.336 107.32 6.712 107.848 6.936C108.088 7.048 108.84 7.24 110.104 7.512L111.112 7.728C112.376 7.968 113.4 8.44 114.184 9.144C114.968 9.928 115.36 10.952 115.36 12.216C115.36 14.296 114.672 15.88 113.296 16.968C112.032 17.992 110.12 18.504 107.56 18.504C105.24 18.504 103.568 18.12 102.544 17.352C101.248 16.376 100.6 14.816 100.6 12.672V12.504ZM129.012 6.336L124.092 18H119.196L118.236 1.2H122.892L122.964 12.792L127.98 1.2H132.228L132.348 12.792L137.34 1.2H141.996L133.908 18H129.036L129.012 6.336ZM159.301 7.92C159.301 9.44 159.037 10.92 158.509 12.36C157.981 13.784 157.245 14.968 156.301 15.912C154.477 17.624 152.029 18.48 148.957 18.48C146.397 18.48 144.501 17.864 143.269 16.632C142.005 15.4 141.373 13.72 141.373 11.592C141.373 10.056 141.629 8.592 142.141 7.2C142.669 5.792 143.389 4.608 144.301 3.648C146.125 1.696 148.637 0.719999 151.837 0.719999C154.189 0.719999 156.005 1.328 157.285 2.544C158.629 3.888 159.301 5.68 159.301 7.92ZM146.365 11.472C146.365 12.416 146.597 13.16 147.061 13.704C147.573 14.312 148.317 14.616 149.293 14.616C150.429 14.616 151.357 14.296 152.077 13.656C152.749 13.048 153.285 12.168 153.685 11.016C154.101 9.848 154.309 8.752 154.309 7.728C154.309 6.704 154.021 5.904 153.445 5.328C152.949 4.832 152.253 4.584 151.357 4.584C150.301 4.584 149.349 4.952 148.501 5.688C147.813 6.344 147.285 7.232 146.917 8.352C146.549 9.472 146.365 10.512 146.365 11.472ZM178.731 7.92C178.731 9.44 178.467 10.92 177.939 12.36C177.411 13.784 176.675 14.968 175.731 15.912C173.907 17.624 171.459 18.48 168.387 18.48C165.827 18.48 163.931 17.864 162.699 16.632C161.435 15.4 160.803 13.72 160.803 11.592C160.803 10.056 161.059 8.592 161.571 7.2C162.099 5.792 162.819 4.608 163.731 3.648C165.555 1.696 168.067 0.719999 171.267 0.719999C173.619 0.719999 175.435 1.328 176.715 2.544C178.059 3.888 178.731 5.68 178.731 7.92ZM165.795 11.472C165.795 12.416 166.027 13.16 166.491 13.704C167.003 14.312 167.747 14.616 168.723 14.616C169.859 14.616 170.787 14.296 171.507 13.656C172.179 13.048 172.715 12.168 173.115 11.016C173.531 9.848 173.739 8.752 173.739 7.728C173.739 6.704 173.451 5.904 172.875 5.328C172.379 4.832 171.683 4.584 170.787 4.584C169.731 4.584 168.779 4.952 167.931 5.688C167.243 6.344 166.715 7.232 166.347 8.352C165.979 9.472 165.795 10.512 165.795 11.472ZM179.584 12.504H184.216C184.056 13.448 184.248 14.144 184.792 14.592C185.144 14.912 185.816 15.072 186.808 15.072C187.624 15.072 188.24 14.944 188.656 14.688C189.28 14.304 189.592 13.768 189.592 13.08C189.592 12.536 189.36 12.128 188.896 11.856C188.624 11.68 188.096 11.504 187.312 11.328L185.872 11.016C184.336 10.696 183.248 10.28 182.608 9.768C181.712 9.016 181.264 8.008 181.264 6.744C181.264 5.08 181.84 3.712 182.992 2.64C184.304 1.376 186.232 0.743999 188.776 0.743999C190.76 0.743999 192.28 1.104 193.336 1.824C194.52 2.624 195.112 3.744 195.112 5.184C195.112 5.376 195.096 5.616 195.064 5.904H190.72C190.832 5.376 190.672 4.928 190.24 4.56C189.888 4.288 189.296 4.152 188.464 4.152C187.712 4.152 187.128 4.288 186.712 4.56C186.264 4.864 186.04 5.28 186.04 5.808C186.04 6.336 186.304 6.712 186.832 6.936C187.072 7.048 187.824 7.24 189.088 7.512L190.096 7.728C191.36 7.968 192.384 8.44 193.168 9.144C193.952 9.928 194.344 10.952 194.344 12.216C194.344 14.296 193.656 15.88 192.28 16.968C191.016 17.992 189.104 18.504 186.544 18.504C184.224 18.504 182.552 18.12 181.528 17.352C180.232 16.376 179.584 14.816 179.584 12.672V12.504ZM201.708 11.088L200.244 18H195.636L199.212 1.2H203.82L202.524 7.248H207.924L209.22 1.2H213.828L210.252 18H205.644L207.108 11.088H201.708Z" fill="white"/>
<mask id="path-4-outside-1_0_1" maskUnits="userSpaceOnUse" x="98" y="23" width="87" height="21" fill="black">
<rect fill="white" x="98" y="23" width="87" height="21"/>
<path d="M99.6 36.504H104.232C104.072 37.448 104.264 38.144 104.808 38.592C105.16 38.912 105.832 39.072 106.824 39.072C107.64 39.072 108.256 38.944 108.672 38.688C109.296 38.304 109.608 37.768 109.608 37.08C109.608 36.536 109.376 36.128 108.912 35.856C108.64 35.68 108.112 35.504 107.328 35.328L105.888 35.016C104.352 34.696 103.264 34.28 102.624 33.768C101.728 33.016 101.28 32.008 101.28 30.744C101.28 29.08 101.856 27.712 103.008 26.64C104.32 25.376 106.248 24.744 108.792 24.744C110.776 24.744 112.296 25.104 113.352 25.824C114.536 26.624 115.128 27.744 115.128 29.184C115.128 29.376 115.112 29.616 115.08 29.904H110.736C110.848 29.376 110.688 28.928 110.256 28.56C109.904 28.288 109.312 28.152 108.48 28.152C107.728 28.152 107.144 28.288 106.728 28.56C106.28 28.864 106.056 29.28 106.056 29.808C106.056 30.336 106.32 30.712 106.848 30.936C107.088 31.048 107.84 31.24 109.104 31.512L110.112 31.728C111.376 31.968 112.4 32.44 113.184 33.144C113.968 33.928 114.36 34.952 114.36 36.216C114.36 38.296 113.672 39.88 112.296 40.968C111.032 41.992 109.12 42.504 106.56 42.504C104.24 42.504 102.568 42.12 101.544 41.352C100.248 40.376 99.6 38.816 99.6 36.672V36.504ZM121.004 29.136H116.084L116.924 25.2H131.348L130.508 29.136H125.588L122.852 42H118.268L121.004 29.136ZM147.965 31.92C147.965 33.44 147.701 34.92 147.173 36.36C146.645 37.784 145.909 38.968 144.965 39.912C143.141 41.624 140.693 42.48 137.621 42.48C135.061 42.48 133.165 41.864 131.933 40.632C130.669 39.4 130.037 37.72 130.037 35.592C130.037 34.056 130.293 32.592 130.805 31.2C131.333 29.792 132.053 28.608 132.965 27.648C134.789 25.696 137.301 24.72 140.501 24.72C142.853 24.72 144.669 25.328 145.949 26.544C147.293 27.888 147.965 29.68 147.965 31.92ZM135.029 35.472C135.029 36.416 135.261 37.16 135.725 37.704C136.237 38.312 136.981 38.616 137.957 38.616C139.093 38.616 140.021 38.296 140.741 37.656C141.413 37.048 141.949 36.168 142.349 35.016C142.765 33.848 142.973 32.752 142.973 31.728C142.973 30.704 142.685 29.904 142.109 29.328C141.613 28.832 140.917 28.584 140.021 28.584C138.965 28.584 138.013 28.952 137.165 29.688C136.477 30.344 135.949 31.232 135.581 32.352C135.213 33.472 135.029 34.512 135.029 35.472ZM148.747 42L152.323 25.2H160.963C162.675 25.2 163.947 25.544 164.779 26.232C165.659 26.984 166.099 28.088 166.099 29.544C166.099 31.08 165.667 32.248 164.803 33.048C164.163 33.656 163.355 34.048 162.379 34.224L162.355 34.32C163.459 34.672 164.011 35.464 164.011 36.696C164.011 36.856 163.931 37.432 163.771 38.424L163.579 39.528C163.483 40.04 163.435 40.432 163.435 40.704C163.435 41.12 163.555 41.552 163.795 42H159.139C158.915 41.584 158.803 41.144 158.803 40.68C158.803 40.36 158.835 40.064 158.899 39.792L159.067 38.952C159.195 38.264 159.259 37.816 159.259 37.608C159.259 37 159.027 36.568 158.563 36.312C158.163 36.104 157.659 36 157.051 36H154.627L153.355 42H148.747ZM156.139 28.92L155.323 32.712H158.659C159.443 32.712 160.067 32.552 160.531 32.232C161.059 31.848 161.323 31.272 161.323 30.504C161.323 29.96 161.163 29.56 160.843 29.304C160.491 29.048 159.955 28.92 159.235 28.92H156.139ZM173.279 31.704H181.127L180.383 35.232H172.535L171.911 38.136H181.151L180.335 42H166.511L170.087 25.2H183.695L182.879 29.04H173.855L173.279 31.704Z"/>
</mask>
<path d="M99.6 36.504V35.504H98.6V36.504H99.6ZM104.232 36.504L105.218 36.6711L105.416 35.504H104.232V36.504ZM104.808 38.592L105.481 37.8521L105.463 37.8356L105.444 37.8201L104.808 38.592ZM108.672 38.688L109.196 39.5397H109.196L108.672 38.688ZM108.912 35.856L108.369 36.6956L108.387 36.7075L108.406 36.7187L108.912 35.856ZM107.328 35.328L107.547 34.3523L107.54 34.3507L107.328 35.328ZM105.888 35.016L106.1 34.0386L106.092 34.037L105.888 35.016ZM102.624 33.768L101.981 34.534L101.99 34.5415L101.999 34.5489L102.624 33.768ZM103.008 26.64L103.689 27.3721L103.696 27.3662L103.702 27.3602L103.008 26.64ZM113.352 25.824L112.789 26.6502L112.792 26.6526L113.352 25.824ZM115.08 29.904V30.904H115.975L116.074 30.0144L115.08 29.904ZM110.736 29.904L109.758 29.6965L109.502 30.904H110.736V29.904ZM110.256 28.56L110.904 27.7988L110.886 27.7833L110.867 27.7687L110.256 28.56ZM106.728 28.56L106.181 27.723L106.174 27.7277L106.166 27.7325L106.728 28.56ZM106.848 30.936L107.271 30.0298L107.255 30.0223L107.239 30.0154L106.848 30.936ZM109.104 31.512L108.894 32.4896L108.894 32.4898L109.104 31.512ZM110.112 31.728L109.902 32.7058L109.914 32.7083L109.925 32.7104L110.112 31.728ZM113.184 33.144L113.891 32.4369L113.872 32.4179L113.852 32.4L113.184 33.144ZM112.296 40.968L111.676 40.1835L111.667 40.191L112.296 40.968ZM101.544 41.352L100.942 42.1508L100.944 42.152L101.544 41.352ZM99.6 37.504H104.232V35.504H99.6V37.504ZM103.246 36.3369C103.051 37.4907 103.255 38.6088 104.172 39.3639L105.444 37.8201C105.273 37.6792 105.093 37.4053 105.218 36.6711L103.246 36.3369ZM104.135 39.3319C104.48 39.6454 104.913 39.8222 105.344 39.9248C105.781 40.0288 106.281 40.072 106.824 40.072V38.072C106.375 38.072 106.043 38.0352 105.808 37.9792C105.567 37.9218 105.488 37.8586 105.481 37.8521L104.135 39.3319ZM106.824 40.072C107.715 40.072 108.549 39.9377 109.196 39.5397L108.148 37.8363C107.963 37.9503 107.565 38.072 106.824 38.072V40.072ZM109.196 39.5397C110.093 38.9879 110.608 38.1417 110.608 37.08H108.608C108.608 37.3943 108.499 37.6201 108.148 37.8363L109.196 39.5397ZM110.608 37.08C110.608 36.1861 110.192 35.4473 109.418 34.9933L108.406 36.7187C108.56 36.8087 108.608 36.8859 108.608 37.08H110.608ZM109.455 35.0164C109.016 34.7324 108.325 34.5269 107.547 34.3523L107.109 36.3037C107.899 36.4811 108.264 36.6276 108.369 36.6956L109.455 35.0164ZM107.54 34.3507L106.1 34.0387L105.676 35.9933L107.116 36.3053L107.54 34.3507ZM106.092 34.037C104.594 33.7249 103.698 33.3469 103.249 32.9871L101.999 34.5489C102.83 35.2131 104.11 35.6671 105.684 35.995L106.092 34.037ZM103.267 33.002C102.617 32.4568 102.28 31.7395 102.28 30.744H100.28C100.28 32.2765 100.839 33.5752 101.981 34.534L103.267 33.002ZM102.28 30.744C102.28 29.3398 102.753 28.243 103.689 27.3721L102.327 25.9079C100.959 27.181 100.28 28.8202 100.28 30.744H102.28ZM103.702 27.3602C104.764 26.3366 106.403 25.744 108.792 25.744V23.744C106.093 23.744 103.876 24.4154 102.314 25.9198L103.702 27.3602ZM108.792 25.744C110.678 25.744 111.967 26.0901 112.789 26.6502L113.915 24.9978C112.625 24.1179 110.874 23.744 108.792 23.744V25.744ZM112.792 26.6526C113.698 27.2649 114.128 28.0731 114.128 29.184H116.128C116.128 27.4149 115.374 25.9831 113.912 24.9954L112.792 26.6526ZM114.128 29.184C114.128 29.3256 114.116 29.5258 114.086 29.7936L116.074 30.0144C116.108 29.7062 116.128 29.4264 116.128 29.184H114.128ZM115.08 28.904H110.736V30.904H115.08V28.904ZM111.714 30.1115C111.803 29.6913 111.792 29.2566 111.642 28.8357C111.492 28.4176 111.228 28.0743 110.904 27.7988L109.608 29.3212C109.716 29.4137 109.748 29.4784 109.758 29.5083C109.768 29.5354 109.781 29.5887 109.758 29.6965L111.714 30.1115ZM110.867 27.7687C110.243 27.2861 109.366 27.152 108.48 27.152V29.152C109.258 29.152 109.565 29.2899 109.645 29.3513L110.867 27.7687ZM108.48 27.152C107.627 27.152 106.823 27.3032 106.181 27.723L107.275 29.397C107.465 29.2728 107.829 29.152 108.48 29.152V27.152ZM106.166 27.7325C105.453 28.217 105.056 28.9386 105.056 29.808H107.056C107.056 29.6214 107.107 29.511 107.29 29.3875L106.166 27.7325ZM105.056 29.808C105.056 30.2459 105.168 30.6801 105.436 31.0606C105.699 31.4356 106.064 31.6896 106.457 31.8566L107.239 30.0154C107.104 29.9584 107.073 29.9124 107.072 29.9114C107.071 29.9093 107.068 29.9056 107.065 29.8952C107.062 29.8835 107.056 29.8565 107.056 29.808H105.056ZM106.425 31.8422C106.644 31.9441 106.983 32.0405 107.345 32.1329C107.738 32.2334 108.256 32.3525 108.894 32.4896L109.314 30.5344C108.688 30.3995 108.198 30.2866 107.839 30.1951C107.66 30.1493 107.52 30.1106 107.417 30.0789C107.304 30.0442 107.266 30.0275 107.271 30.0298L106.425 31.8422ZM108.894 32.4898L109.902 32.7058L110.322 30.7502L109.314 30.5342L108.894 32.4898ZM109.925 32.7104C111.05 32.9239 111.895 33.3303 112.516 33.888L113.852 32.4C112.905 31.5496 111.702 31.0121 110.299 30.7456L109.925 32.7104ZM112.477 33.8511C113.047 34.4208 113.36 35.1768 113.36 36.216H115.36C115.36 34.7272 114.889 33.4352 113.891 32.4369L112.477 33.8511ZM113.36 36.216C113.36 38.0537 112.766 39.3214 111.676 40.1836L112.916 41.7524C114.578 40.4386 115.36 38.5383 115.36 36.216H113.36ZM111.667 40.191C110.657 41.0084 109.015 41.504 106.56 41.504V43.504C109.225 43.504 111.407 42.9756 112.925 41.745L111.667 40.191ZM106.56 41.504C104.302 41.504 102.903 41.121 102.144 40.552L100.944 42.152C102.233 43.119 104.178 43.504 106.56 43.504V41.504ZM102.146 40.5532C101.177 39.8236 100.6 38.6117 100.6 36.672H98.6C98.6 39.0203 99.3192 40.9284 100.942 42.1508L102.146 40.5532ZM100.6 36.672V36.504H98.6V36.672H100.6ZM121.003 29.136L121.982 29.344L122.239 28.136H121.003V29.136ZM116.083 29.136L115.106 28.9273L114.848 30.136H116.083V29.136ZM116.924 25.2V24.2H116.114L115.946 24.9913L116.924 25.2ZM131.347 25.2L132.325 25.4087L132.583 24.2H131.347V25.2ZM130.507 29.136V30.136H131.317L131.485 29.3447L130.507 29.136ZM125.588 29.136V28.136H124.778L124.609 28.928L125.588 29.136ZM122.852 42V43H123.661L123.83 42.208L122.852 42ZM118.267 42L117.289 41.792L117.032 43H118.267V42ZM121.003 28.136H116.083V30.136H121.003V28.136ZM117.061 29.3447L117.901 25.4087L115.946 24.9913L115.106 28.9273L117.061 29.3447ZM116.924 26.2H131.347V24.2H116.924V26.2ZM130.37 24.9913L129.53 28.9273L131.485 29.3447L132.325 25.4087L130.37 24.9913ZM130.507 28.136H125.588V30.136H130.507V28.136ZM124.609 28.928L121.873 41.792L123.83 42.208L126.566 29.344L124.609 28.928ZM122.852 41H118.267V43H122.852V41ZM119.246 42.208L121.982 29.344L120.025 28.928L117.289 41.792L119.246 42.208ZM147.173 36.36L148.111 36.7077L148.112 36.7043L147.173 36.36ZM144.965 39.912L145.649 40.6411L145.661 40.6303L145.672 40.6191L144.965 39.912ZM131.933 40.632L132.64 39.9248L132.631 39.9159L131.933 40.632ZM130.805 31.2L129.869 30.8489L129.867 30.8548L130.805 31.2ZM132.965 27.648L133.69 28.3368L133.696 28.3307L132.965 27.648ZM145.949 26.544L146.656 25.8369L146.647 25.8278L146.638 25.819L145.949 26.544ZM135.725 37.704L136.49 37.0599L136.486 37.0551L135.725 37.704ZM140.741 37.656L141.405 38.4034L141.412 38.3975L140.741 37.656ZM142.349 35.016L141.407 34.6805L141.404 34.688L142.349 35.016ZM142.109 29.328L141.402 30.0351V30.0351L142.109 29.328ZM137.165 29.688L136.51 28.9328L136.492 28.9481L136.475 28.9643L137.165 29.688ZM135.581 32.352L136.531 32.6642L135.581 32.352ZM146.965 31.92C146.965 33.3215 146.722 34.685 146.234 36.0157L148.112 36.7043C148.68 35.155 148.965 33.5585 148.965 31.92H146.965ZM146.235 36.0123C145.751 37.3199 145.087 38.3759 144.258 39.2049L145.672 40.6191C146.731 39.5601 147.54 38.2481 148.111 36.7077L146.235 36.0123ZM144.281 39.1829C142.682 40.6832 140.5 41.48 137.621 41.48V43.48C140.886 43.48 143.6 42.5648 145.649 40.6411L144.281 39.1829ZM137.621 41.48C135.202 41.48 133.612 40.8969 132.64 39.9249L131.226 41.3391C132.718 42.8311 134.92 43.48 137.621 43.48V41.48ZM132.631 39.9159C131.599 38.9099 131.037 37.5098 131.037 35.592H129.037C129.037 37.9302 129.739 39.8901 131.235 41.3481L132.631 39.9159ZM131.037 35.592C131.037 34.1695 131.274 32.8227 131.744 31.5452L129.867 30.8548C129.312 32.3613 129.037 33.9425 129.037 35.592H131.037ZM131.741 31.5511C132.229 30.2517 132.882 29.1872 133.69 28.3367L132.24 26.9592C131.224 28.0288 130.437 29.3323 129.869 30.8489L131.741 31.5511ZM133.696 28.3307C135.294 26.6207 137.519 25.72 140.501 25.72V23.72C137.083 23.72 134.285 24.7713 132.234 26.9653L133.696 28.3307ZM140.501 25.72C142.684 25.72 144.221 26.2817 145.26 27.269L146.638 25.819C145.117 24.3743 143.022 23.72 140.501 23.72V25.72ZM145.242 27.2511C146.365 28.3744 146.965 29.8943 146.965 31.92H148.965C148.965 29.4657 148.221 27.4016 146.656 25.8369L145.242 27.2511ZM134.029 35.472C134.029 36.5767 134.302 37.5768 134.964 38.3529L136.486 37.0551C136.22 36.7432 136.029 36.2553 136.029 35.472H134.029ZM134.96 38.3481C135.705 39.2325 136.76 39.616 137.957 39.616V37.616C137.203 37.616 136.769 37.3915 136.49 37.0599L134.96 38.3481ZM137.957 39.616C139.292 39.616 140.47 39.2345 141.405 38.4034L140.077 36.9086C139.572 37.3575 138.895 37.616 137.957 37.616V39.616ZM141.412 38.3975C142.244 37.6446 142.857 36.602 143.294 35.344L141.404 34.688C141.041 35.734 140.582 36.4514 140.07 36.9145L141.412 38.3975ZM143.291 35.3515C143.738 34.0978 143.973 32.8876 143.973 31.728H141.973C141.973 32.6164 141.793 33.5982 141.407 34.6805L143.291 35.3515ZM143.973 31.728C143.973 30.5107 143.625 29.4298 142.816 28.6209L141.402 30.0351C141.745 30.3782 141.973 30.8973 141.973 31.728H143.973ZM142.816 28.6209C142.084 27.8891 141.105 27.584 140.021 27.584V29.584C140.729 29.584 141.142 29.7749 141.402 30.0351L142.816 28.6209ZM140.021 27.584C138.708 27.584 137.527 28.0498 136.51 28.9328L137.821 30.4432C138.499 29.8542 139.222 29.584 140.021 29.584V27.584ZM136.475 28.9643C135.642 29.7581 135.038 30.8003 134.631 32.0398L136.531 32.6642C136.86 31.6637 137.312 30.9299 137.855 30.4117L136.475 28.9643ZM134.631 32.0398C134.237 33.2385 134.029 34.385 134.029 35.472H136.029C136.029 34.639 136.189 33.7055 136.531 32.6642L134.631 32.0398ZM148.747 42L147.769 41.7918L147.511 43H148.747V42ZM152.323 25.2V24.2H151.513L151.345 24.9918L152.323 25.2ZM164.779 26.232L165.428 25.4718L165.422 25.4665L165.416 25.4614L164.779 26.232ZM164.803 33.048L164.123 32.3142L164.114 32.323L164.803 33.048ZM162.379 34.224L162.201 33.2399L161.565 33.3546L161.409 33.9815L162.379 34.224ZM162.355 34.32L161.385 34.0775L161.157 34.9877L162.051 35.2727L162.355 34.32ZM163.771 38.424L164.756 38.5954L164.758 38.5832L163.771 38.424ZM163.579 39.528L164.562 39.7123L164.564 39.6993L163.579 39.528ZM163.795 42V43H165.465L164.676 41.5278L163.795 42ZM159.139 42L158.258 42.4741L158.541 43H159.139V42ZM158.899 39.792L159.872 40.021L159.876 40.0046L159.879 39.9881L158.899 39.792ZM159.067 38.952L160.047 39.1481L160.05 39.1349L159.067 38.952ZM158.563 36.312L159.046 35.4364L159.035 35.4305L159.024 35.4248L158.563 36.312ZM154.627 36V35H153.817L153.648 35.7926L154.627 36ZM153.355 42V43H154.165L154.333 42.2074L153.355 42ZM156.139 28.92V27.92H155.331L155.161 28.7096L156.139 28.92ZM155.323 32.712L154.345 32.5016L154.085 33.712H155.323V32.712ZM160.531 32.232L161.098 33.0552L161.109 33.0481L161.119 33.0407L160.531 32.232ZM160.843 29.304L161.467 28.5231L161.45 28.5088L161.431 28.4953L160.843 29.304ZM149.725 42.2082L153.301 25.4082L151.345 24.9918L147.769 41.7918L149.725 42.2082ZM152.323 26.2H160.963V24.2H152.323V26.2ZM160.963 26.2C162.57 26.2 163.567 26.528 164.141 27.0026L165.416 25.4614C164.326 24.56 162.779 24.2 160.963 24.2V26.2ZM164.129 26.9922C164.731 27.507 165.099 28.2989 165.099 29.544H167.099C167.099 27.8771 166.586 26.461 165.428 25.4718L164.129 26.9922ZM165.099 29.544C165.099 30.8908 164.725 31.7567 164.123 32.3142L165.482 33.7818C166.608 32.7393 167.099 31.2692 167.099 29.544H165.099ZM164.114 32.323C163.633 32.7804 163.01 33.0941 162.201 33.2399L162.556 35.2081C163.7 35.0019 164.693 34.5316 165.492 33.773L164.114 32.323ZM161.409 33.9815L161.385 34.0775L163.325 34.5625L163.349 34.4665L161.409 33.9815ZM162.051 35.2727C162.437 35.3958 162.65 35.5681 162.776 35.7498C162.907 35.937 163.011 36.228 163.011 36.696H165.011C165.011 35.932 164.839 35.211 164.417 34.6062C163.992 33.9959 163.377 33.5962 162.659 33.3673L162.051 35.2727ZM163.011 36.696C163.011 36.6924 163.003 36.8013 162.96 37.1104C162.922 37.3879 162.863 37.7716 162.784 38.2648L164.758 38.5832C164.838 38.0844 164.9 37.6841 164.941 37.3856C164.978 37.1187 165.011 36.8596 165.011 36.696H163.011ZM162.786 38.2527L162.594 39.3567L164.564 39.6993L164.756 38.5953L162.786 38.2527ZM162.596 39.3437C162.497 39.8721 162.435 40.3372 162.435 40.704H164.435C164.435 40.5268 164.469 40.2079 164.562 39.7123L162.596 39.3437ZM162.435 40.704C162.435 41.3175 162.613 41.9108 162.913 42.4722L164.676 41.5278C164.497 41.1932 164.435 40.9225 164.435 40.704H162.435ZM163.795 41H159.139V43H163.795V41ZM160.019 41.5259C159.872 41.2528 159.803 40.9754 159.803 40.68H157.803C157.803 41.3126 157.957 41.9152 158.258 42.4741L160.019 41.5259ZM159.803 40.68C159.803 40.4262 159.828 40.2081 159.872 40.021L157.925 39.563C157.841 39.9199 157.803 40.2938 157.803 40.68H159.803ZM159.879 39.9881L160.047 39.1481L158.086 38.7559L157.918 39.5959L159.879 39.9881ZM160.05 39.1349C160.174 38.4701 160.259 37.9261 160.259 37.608H158.259C158.259 37.7059 158.216 38.0579 158.084 38.7691L160.05 39.1349ZM160.259 37.608C160.259 36.7006 159.882 35.8976 159.046 35.4364L158.08 37.1876C158.172 37.2384 158.259 37.2994 158.259 37.608H160.259ZM159.024 35.4248C158.441 35.1214 157.766 35 157.051 35V37C157.552 37 157.885 37.0866 158.101 37.1992L159.024 35.4248ZM157.051 35H154.627V37H157.051V35ZM153.648 35.7926L152.376 41.7926L154.333 42.2074L155.605 36.2074L153.648 35.7926ZM153.355 41H148.747V43H153.355V41ZM155.161 28.7096L154.345 32.5016L156.3 32.9224L157.116 29.1304L155.161 28.7096ZM155.323 33.712H158.659V31.712H155.323V33.712ZM158.659 33.712C159.569 33.712 160.414 33.5274 161.098 33.0552L159.963 31.4088C159.72 31.5766 159.317 31.712 158.659 31.712V33.712ZM161.119 33.0407C161.954 32.4337 162.323 31.5278 162.323 30.504H160.323C160.323 31.0162 160.164 31.2623 159.943 31.4233L161.119 33.0407ZM162.323 30.504C162.323 29.763 162.097 29.0269 161.467 28.5231L160.218 30.0849C160.228 30.0931 160.323 30.157 160.323 30.504H162.323ZM161.431 28.4953C160.829 28.0572 160.04 27.92 159.235 27.92V29.92C159.869 29.92 160.153 30.0388 160.255 30.1127L161.431 28.4953ZM159.235 27.92H156.139V29.92H159.235V27.92ZM173.279 31.704L172.302 31.4927L172.04 32.704H173.279V31.704ZM181.127 31.704L182.106 31.9103L182.36 30.704H181.127V31.704ZM180.383 35.232V36.232H181.194L181.362 35.4383L180.383 35.232ZM172.535 35.232V34.232H171.727L171.558 35.0219L172.535 35.232ZM171.911 38.136L170.934 37.9259L170.674 39.136H171.911V38.136ZM181.151 38.136L182.13 38.3426L182.384 37.136H181.151V38.136ZM180.335 42V43H181.146L181.314 42.2066L180.335 42ZM166.511 42L165.533 41.7918L165.276 43H166.511V42ZM170.087 25.2V24.2H169.278L169.109 24.9918L170.087 25.2ZM183.695 25.2L184.673 25.4079L184.93 24.2H183.695V25.2ZM182.879 29.04V30.04H183.689L183.857 29.2479L182.879 29.04ZM173.855 29.04V28.04H173.048L172.878 28.8287L173.855 29.04ZM173.279 32.704H181.127V30.704H173.279V32.704ZM180.149 31.4977L179.405 35.0257L181.362 35.4383L182.106 31.9103L180.149 31.4977ZM180.383 34.232H172.535V36.232H180.383V34.232ZM171.558 35.0219L170.934 37.9259L172.889 38.3461L173.513 35.4421L171.558 35.0219ZM171.911 39.136H181.151V37.136H171.911V39.136ZM180.173 37.9294L179.357 41.7934L181.314 42.2066L182.13 38.3426L180.173 37.9294ZM180.335 41H166.511V43H180.335V41ZM167.489 42.2082L171.065 25.4082L169.109 24.9918L165.533 41.7918L167.489 42.2082ZM170.087 26.2H183.695V24.2H170.087V26.2ZM182.717 24.9921L181.901 28.8321L183.857 29.2479L184.673 25.4079L182.717 24.9921ZM182.879 28.04H173.855V30.04H182.879V28.04ZM172.878 28.8287L172.302 31.4927L174.257 31.9153L174.833 29.2513L172.878 28.8287Z" fill="#FF6915" mask="url(#path-4-outside-1_0_1)"/>
</svg>
