<svg width="139" height="24" viewBox="0 0 139 24" fill="none" xmlns="http://www.w3.org/2000/svg">
<path d="M38.2915 14.7882C38.2915 15.4762 38.0959 16.0352 37.7048 16.4652C37.3137 16.8951 36.7474 17.1703 36.0059 17.2908L38.2426 19.9738V20.3221H35.7981L33.4146 17.3553H32.1556V20.3221H29.9922V11.8601H35.138C36.1159 11.8601 36.8859 12.1095 37.4481 12.6082C38.0103 13.107 38.2915 13.7907 38.2915 14.6592V14.7882ZM36.0914 14.6463C36.0914 14.1132 35.7573 13.8466 35.0891 13.8466H32.1556V15.588H35.0891C35.4151 15.588 35.6636 15.5192 35.8347 15.3816C36.0059 15.244 36.0914 15.042 36.0914 14.7753V14.6463ZM47.1245 11.8601V13.8337H42.0031V15.1107H46.88V17.0586H42.0031V18.3485H47.1245V20.3221H39.8397V11.8601H47.1245ZM57.1429 19.9738V20.3221H55.004L54.3806 18.7613H50.6405L50.0171 20.3221H47.8781V19.9738L51.3127 11.8601H53.7084L57.1429 19.9738ZM53.6228 16.8393L52.5105 14.0401L51.3983 16.8393H53.6228ZM62.1853 11.8601C63.7172 11.8601 64.8702 12.2127 65.6443 12.9178C66.4266 13.6144 66.8177 14.655 66.8177 16.0395V16.1556C66.8177 18.9333 65.2735 20.3221 62.1853 20.3221H58.0784V11.8601H62.1853ZM62.1853 18.284C63.0327 18.284 63.6479 18.1163 64.0309 17.7809C64.422 17.4456 64.6176 16.9167 64.6176 16.1943V16.0137C64.6176 15.2999 64.418 14.7711 64.0187 14.427C63.6194 14.0745 63.0042 13.8982 62.1731 13.8982H60.2418V18.284H62.1853ZM75.826 11.8601V12.2084L72.4155 17.0328V20.3221H70.2522V17.0328L66.8298 12.2084V11.8601H69.1277L71.3403 15.0591L73.5405 11.8601H75.826ZM80.7565 20.4898C79.7709 20.4898 78.9031 20.3135 78.1534 19.9609C77.4115 19.5997 76.8372 19.0923 76.43 18.4388C76.0307 17.7852 75.831 17.0199 75.831 16.1427V16.0524C75.831 15.1752 76.0307 14.4099 76.43 13.7563C76.8372 13.0941 77.4115 12.5868 78.1534 12.2342C78.9031 11.873 79.7709 11.6924 80.7565 11.6924C81.6776 11.6924 82.5048 11.8515 83.2375 12.1697C83.9709 12.4878 84.5415 12.9264 84.9487 13.4854C85.3645 14.0444 85.5727 14.6764 85.5727 15.3816V15.4848H83.3597V15.3816C83.3597 14.9086 83.1195 14.5302 82.6391 14.2464C82.1665 13.9627 81.539 13.8208 80.7565 13.8208C78.9394 13.8208 78.0312 14.556 78.0312 16.0266V16.1814C78.0312 16.9123 78.255 17.4585 78.7034 17.8196C79.1512 18.1808 79.8355 18.3614 80.7565 18.3614C81.5631 18.3614 82.1992 18.2238 82.6632 17.9486C83.128 17.6734 83.3597 17.295 83.3597 16.8135V16.7232H85.5727V16.8135C85.5727 17.5186 85.3645 18.1507 84.9487 18.7097C84.5415 19.2687 83.9709 19.7072 83.2375 20.0254C82.5048 20.335 81.6776 20.4898 80.7565 20.4898ZM91.3788 20.4898C90.4087 20.4898 89.5531 20.3135 88.8119 19.9609C88.0785 19.5997 87.5121 19.0923 87.1127 18.4388C86.7133 17.7766 86.5136 17.0112 86.5136 16.1427V16.0524C86.5136 15.1752 86.7133 14.4099 87.1127 13.7563C87.5121 13.0941 88.0785 12.5868 88.8119 12.2342C89.5531 11.873 90.4087 11.6924 91.3788 11.6924C92.3645 11.6924 93.2244 11.873 93.9578 12.2342C94.6912 12.5868 95.2568 13.0941 95.6562 13.7563C96.0556 14.4099 96.2553 15.1752 96.2553 16.0524V16.1427C96.2553 17.0199 96.0556 17.7852 95.6562 18.4388C95.2568 19.0923 94.6912 19.5997 93.9578 19.9609C93.2244 20.3135 92.3645 20.4898 91.3788 20.4898ZM91.3788 18.3614C93.1632 18.3614 94.0551 17.6347 94.0551 16.1814V16.0266C94.0551 15.3042 93.827 14.7582 93.3707 14.3883C92.9223 14.01 92.2586 13.8208 91.3788 13.8208C90.5146 13.8208 89.8544 14.01 89.3982 14.3883C88.9419 14.7667 88.7138 15.3128 88.7138 16.0266V16.1814C88.7138 16.8951 88.9377 17.4369 89.3861 17.8067C89.8345 18.1765 90.4983 18.3614 91.3788 18.3614ZM101.718 11.8601C103.25 11.8601 104.403 12.2127 105.178 12.9178C105.959 13.6144 106.351 14.655 106.351 16.0395V16.1556C106.351 18.9333 104.807 20.3221 101.718 20.3221H97.6113V11.8601H101.718ZM101.718 18.284C102.566 18.284 103.181 18.1163 103.564 17.7809C103.955 17.4456 104.151 16.9167 104.151 16.1943V16.0137C104.151 15.2999 103.951 14.7711 103.552 14.427C103.152 14.0745 102.538 13.8982 101.706 13.8982H99.7752V18.284H101.718ZM114.995 11.8601V13.8337H109.873V15.1107H114.75V17.0586H109.873V18.3485H114.995V20.3221H107.71V11.8601H114.995ZM117.716 20.4898C117.358 20.4898 117.064 20.3737 116.836 20.1415C116.608 19.9007 116.493 19.5954 116.493 19.2256C116.493 18.8559 116.608 18.5592 116.836 18.3356C117.064 18.1034 117.358 17.9873 117.716 17.9873C118.083 17.9873 118.376 18.1034 118.596 18.3356C118.824 18.5592 118.938 18.8559 118.938 19.2256C118.938 19.6041 118.824 19.9093 118.596 20.1415C118.376 20.3737 118.083 20.4898 117.716 20.4898ZM128.924 14.7882C128.924 15.4762 128.728 16.0352 128.337 16.4652C127.946 16.8951 127.38 17.1703 126.638 17.2908L128.875 19.9738V20.3221H126.431L124.047 17.3553H122.789V20.3221H120.625V11.8601H125.77C126.748 11.8601 127.519 12.1095 128.081 12.6082C128.643 13.107 128.924 13.7907 128.924 14.6592V14.7882ZM126.724 14.6463C126.724 14.1132 126.39 13.8466 125.721 13.8466H122.789V15.588H125.721C126.048 15.588 126.296 15.5192 126.468 15.3816C126.638 15.244 126.724 15.042 126.724 14.7753V14.6463ZM134.445 20.4898C133.622 20.4898 132.9 20.3221 132.282 19.9867C131.662 19.6428 131.185 19.1568 130.851 18.5291C130.517 17.9013 130.35 17.1747 130.35 16.3491V11.8601H132.513V16.3878C132.513 17.0328 132.677 17.5229 133.002 17.8583C133.328 18.1937 133.809 18.3614 134.445 18.3614C135.089 18.3614 135.573 18.1937 135.899 17.8583C136.225 17.5229 136.388 17.0328 136.388 16.3878V11.8601H138.552V16.3491C138.552 17.1832 138.38 17.9142 138.038 18.542C137.704 19.1611 137.228 19.6428 136.608 19.9867C135.989 20.3221 135.268 20.4898 134.445 20.4898Z" fill="#ABABAB"/>
<path d="M33.3263 1.70616C33.8606 1.70616 34.2831 1.842 34.594 2.11368C34.9049 2.38024 35.0603 2.74163 35.0603 3.19786V3.29013C35.0603 3.74635 34.9049 4.11031 34.594 4.38199C34.2831 4.64855 33.8606 4.78183 33.3263 4.78183H31.1114V6.75026H30.3828V1.70616H33.3263ZM33.3117 4.09749C33.6323 4.09749 33.88 4.02829 34.0549 3.88988C34.2346 3.74635 34.3244 3.54643 34.3244 3.29013V3.19786C34.3244 2.94155 34.2346 2.7442 34.0549 2.60579C33.88 2.46226 33.6323 2.3905 33.3117 2.3905H31.1114V4.09749H33.3117ZM40.2642 6.63493V6.75026H39.521L38.9527 5.47386H36.257L35.6887 6.75026H34.9455V6.63493L37.2042 1.70616H38.0056L40.2642 6.63493ZM38.6395 4.78183L37.6048 2.46739L36.5702 4.78183H38.6395ZM45.0617 4.18976C45.3191 4.29229 45.5159 4.43326 45.6518 4.61266C45.7879 4.79208 45.8559 4.99969 45.8559 5.23549V5.32776C45.8559 5.80962 45.6349 6.18382 45.1928 6.45038C44.7557 6.71182 44.1315 6.84253 43.3204 6.84253C42.4412 6.84253 41.7709 6.66824 41.3095 6.31966C40.8529 5.96596 40.6246 5.45079 40.6246 4.77414V4.70494H41.3605V4.77414C41.3605 5.24062 41.5184 5.58407 41.834 5.80449C42.1546 6.01979 42.6549 6.12744 43.3349 6.12744C43.9421 6.12744 44.3914 6.0608 44.6829 5.92752C44.9743 5.79424 45.12 5.58663 45.12 5.3047V5.22011C45.12 4.98431 45.0107 4.81771 44.7922 4.72032C44.5736 4.61779 44.202 4.56653 43.6774 4.56653H42.4023V3.88219H43.6264C44.1121 3.88219 44.4618 3.82837 44.6755 3.72072C44.8941 3.61307 45.0034 3.43879 45.0034 3.19786V3.11328C45.0034 2.59041 44.4278 2.32898 43.2767 2.32898C42.6355 2.32898 42.1595 2.44175 41.8487 2.66731C41.5378 2.89285 41.3823 3.23374 41.3823 3.68997V3.75148H40.6538V3.68997C40.6538 3.01844 40.8796 2.50583 41.3313 2.15213C41.7879 1.7933 42.4412 1.61389 43.2912 1.61389C44.0684 1.61389 44.6707 1.74204 45.0982 1.99834C45.5256 2.25465 45.7393 2.61348 45.7393 3.07483V3.17479C45.7393 3.63101 45.5134 3.96934 45.0617 4.18976ZM49.8049 1.70616C50.3391 1.70616 50.7617 1.842 51.0726 2.11368C51.3835 2.38024 51.5389 2.74163 51.5389 3.19786V3.29013C51.5389 3.74635 51.3835 4.11031 51.0726 4.38199C50.7617 4.64855 50.3391 4.78183 49.8049 4.78183H47.5899V6.75026H46.8614V1.70616H49.8049ZM49.7903 4.09749C50.1109 4.09749 50.3586 4.02829 50.5334 3.88988C50.7132 3.74635 50.803 3.54643 50.803 3.29013V3.19786C50.803 2.94155 50.7132 2.7442 50.5334 2.60579C50.3586 2.46226 50.1109 2.3905 49.7903 2.3905H47.5899V4.09749H49.7903ZM56.7428 6.63493V6.75026H55.9996L55.4313 5.47386H52.7356L52.1672 6.75026H51.4241V6.63493L53.6827 1.70616H54.4841L56.7428 6.63493ZM55.118 4.78183L54.0834 2.46739L53.0488 4.78183H55.118ZM61.7812 1.70616V2.3905H58.284V3.8053H60.4187C60.9676 3.8053 61.3926 3.93089 61.6937 4.18207C61.9997 4.42813 62.1527 4.7767 62.1527 5.2278V5.32776C62.1527 5.77373 61.9997 6.12231 61.6937 6.37349C61.3877 6.62467 60.9627 6.75026 60.4187 6.75026H57.5554V1.70616H61.7812ZM60.4114 6.06592C60.7223 6.06592 60.9676 5.99929 61.1473 5.866C61.3318 5.73273 61.4242 5.55331 61.4242 5.32776V5.2278C61.4242 4.99713 61.3343 4.81771 61.1546 4.68956C60.9749 4.55628 60.7271 4.48964 60.4114 4.48964H58.284V6.06592H60.4114ZM65.8041 6.84253C65.2552 6.84253 64.7743 6.73744 64.3615 6.52727C63.9486 6.31711 63.6305 6.01979 63.407 5.63533C63.1836 5.25087 63.0719 4.79977 63.0719 4.28203V4.18207C63.0719 3.66433 63.1836 3.21324 63.407 2.82877C63.6305 2.43919 63.9486 2.13931 64.3615 1.92914C64.7743 1.71897 65.2552 1.61389 65.8041 1.61389C66.3529 1.61389 66.8314 1.71897 67.2394 1.92914C67.6523 2.13931 67.9704 2.43919 68.1938 2.82877C68.4173 3.21324 68.529 3.66433 68.529 4.18207V4.28203C68.529 4.79977 68.4173 5.25087 68.1938 5.63533C67.9704 6.01979 67.6523 6.31711 67.2394 6.52727C66.8314 6.73744 66.3529 6.84253 65.8041 6.84253ZM65.8041 6.12744C66.4307 6.12744 66.9188 5.96596 67.2686 5.64302C67.6183 5.32007 67.7932 4.87153 67.7932 4.29741V4.17439C67.7932 3.59513 67.6183 3.14404 67.2686 2.82109C66.9188 2.49301 66.4307 2.32898 65.8041 2.32898C65.1775 2.32898 64.6869 2.49301 64.3323 2.82109C63.9826 3.14404 63.8078 3.59513 63.8078 4.17439V4.29741C63.8078 4.87153 63.9826 5.32007 64.3323 5.64302C64.6869 5.96596 65.1775 6.12744 65.8041 6.12744ZM68.869 2.3905V1.70616H73.7289V2.3905H71.6595V6.75026H70.9381V2.3905H68.869ZM79.2181 1.82149L76.9589 4.18207L79.1449 6.63493V6.75026H78.2999L76.3179 4.54346H75.2178V6.75026H74.4894V1.70616H75.2178V3.85144H76.3037L78.3433 1.70616H79.2181V1.82149ZM85.1322 6.63493V6.75026H84.3888L83.8203 5.47386H81.1248L80.5563 6.75026H79.8136V6.63493L82.0721 1.70616H82.8737L85.1322 6.63493ZM83.5069 4.78183L82.4729 2.46739L81.4382 4.78183H83.5069ZM90.9994 6.84253C90.4408 6.84253 89.9526 6.74001 89.5347 6.53497C89.1176 6.32479 88.7942 6.02748 88.5661 5.64302C88.343 5.25856 88.2307 4.81003 88.2307 4.29741V4.16669C88.2307 3.65408 88.343 3.20554 88.5661 2.82109C88.7942 2.43663 89.1176 2.13931 89.5347 1.92914C89.9526 1.71897 90.4408 1.61389 90.9994 1.61389C91.5047 1.61389 91.9588 1.70359 92.3617 1.88301C92.7697 2.06242 93.088 2.31104 93.3162 2.62886C93.5493 2.94155 93.6658 3.29269 93.6658 3.68227V3.75148H92.9303V3.68227C92.9303 3.42597 92.8478 3.19529 92.6823 2.99025C92.5174 2.78521 92.2864 2.62373 91.9901 2.50583C91.6987 2.38793 91.3689 2.32898 90.9994 2.32898C90.3484 2.32898 89.846 2.48789 89.4914 2.80571C89.1417 3.12353 88.9669 3.57463 88.9669 4.159V4.3051C88.9669 4.88948 89.1417 5.34058 89.4914 5.6584C89.846 5.97109 90.3484 6.12744 90.9994 6.12744C91.3732 6.12744 91.7065 6.07105 91.9979 5.95828C92.2942 5.84038 92.5224 5.6789 92.6823 5.47386C92.8478 5.26881 92.9303 5.03814 92.9303 4.78183V4.70494H93.6658V4.78183C93.6658 5.17141 93.5493 5.52256 93.3162 5.83525C93.088 6.14794 92.7697 6.394 92.3617 6.57341C91.9588 6.75283 91.5047 6.84253 90.9994 6.84253ZM99.3127 6.63493V6.75026H98.5694L98.0008 5.47386H95.3053L94.7368 6.75026H93.9934V6.63493L96.2526 1.70616H97.0535L99.3127 6.63493ZM97.6874 4.78183L96.6534 2.46739L95.6187 4.78183H97.6874ZM100.853 1.70616V5.70453L104.023 1.70616H104.751V6.75026H104.023V2.75188L100.853 6.75026H100.125V1.70616H100.853ZM102.442 1.1756C101.936 1.1756 101.553 1.08589 101.29 0.906479C101.028 0.727066 100.897 0.465634 100.897 0.122183V0.0683594H101.538V0.122183C101.538 0.260588 101.616 0.368237 101.772 0.445129C101.927 0.516895 102.15 0.552778 102.442 0.552778C102.724 0.552778 102.937 0.516895 103.083 0.445129C103.233 0.368237 103.309 0.260588 103.309 0.122183V0.0683594H103.987V0.122183C103.987 0.47076 103.855 0.734755 103.593 0.914167C103.336 1.08846 102.952 1.1756 102.442 1.1756ZM105.512 2.3905V1.70616H110.371V2.3905H108.302V6.75026H107.581V2.3905H105.512ZM115.35 6.63493V6.75026H114.607L114.038 5.47386H111.343L110.774 6.75026H110.031V6.63493L112.29 1.70616H113.091L115.35 6.63493ZM113.725 4.78183L112.69 2.46739L111.656 4.78183H113.725Z" fill="#ABABAB"/>
<path fill-rule="evenodd" clip-rule="evenodd" d="M0 1.74219C0.0106033 1.81175 0.021528 1.89342 0.0296231 1.96595C0.0442406 2.09693 0.0793168 2.32912 0.107598 2.48193C0.13588 2.63474 0.169605 2.93241 0.182568 3.14343C0.19553 3.35445 0.222282 3.61046 0.24204 3.71233C0.261796 3.8142 0.295268 4.04666 0.316429 4.22887C0.33759 4.4111 0.36685 4.62543 0.381442 4.70515C0.421734 4.92552 0.475865 5.42453 0.494744 5.74978C0.504046 5.90986 0.532303 6.1361 0.557576 6.25253C0.582824 6.36895 0.615869 6.58328 0.631013 6.72881C0.646132 6.87435 0.68008 7.10058 0.706431 7.23156C0.732783 7.36254 0.761216 7.60663 0.769616 7.77403C0.778016 7.94136 0.806372 8.22118 0.832623 8.39578C0.858896 8.57046 0.897734 8.85028 0.918947 9.01761C0.940182 9.18501 0.973704 9.41121 0.99346 9.52041C1.01322 9.62953 1.04252 9.89743 1.05857 10.1158C1.07465 10.334 1.11052 10.6555 1.13833 10.8301C1.16616 11.0048 1.20369 11.2727 1.22179 11.4256C1.25486 11.7051 1.29914 11.9701 1.3183 12.0031C1.32397 12.0129 1.34179 12.2233 1.35794 12.4707C1.37406 12.7181 1.40783 13.0277 1.43298 13.1587C1.45815 13.2897 1.48666 13.4861 1.49639 13.5953C1.50612 13.7044 1.53565 13.9069 1.56205 14.0451C1.58843 14.1834 1.62729 14.5227 1.6484 14.7992C1.66949 15.0757 1.70364 15.3973 1.72425 15.5137C1.74488 15.6301 1.78432 15.904 1.81195 16.1222C1.83955 16.3405 1.87267 16.561 1.88556 16.612C1.89845 16.6631 1.92548 16.9195 1.94561 17.1819C1.96577 17.4442 1.99914 17.7358 2.0198 17.8299C2.04046 17.9239 2.07599 18.1557 2.09875 18.3449C2.12152 18.5341 2.15527 18.7544 2.17375 18.8344C2.19222 18.9145 2.21987 19.1704 2.23517 19.4033C2.2644 19.8481 2.32342 20.3293 2.36176 20.4358C2.37422 20.4703 2.41111 20.5171 2.44372 20.5396C2.49702 20.5765 3.50281 20.5807 12.3903 20.5809C21.1515 20.581 22.2841 20.5765 22.3351 20.5413C22.4325 20.4739 22.4502 20.4014 22.4836 19.9342C22.5013 19.6859 22.533 19.3934 22.5539 19.2843C22.5748 19.1751 22.6107 18.925 22.6337 18.7286C22.6567 18.5321 22.6794 18.3645 22.6843 18.356C22.7054 18.319 22.7465 17.9632 22.7825 17.5057C22.804 17.2334 22.8285 16.9917 22.8368 16.9686C22.8458 16.9438 22.8287 16.9003 22.7953 16.8628L22.7385 16.7989L14.1659 16.7982C8.38259 16.7977 5.5779 16.7887 5.54563 16.7704C5.49105 16.7396 5.48305 16.6971 5.44602 16.2413C5.43123 16.0594 5.40302 15.8451 5.38336 15.7651C5.36368 15.685 5.32943 15.4486 5.30724 15.2399C5.28506 15.0311 5.25782 14.8347 5.24675 14.8033C5.22084 14.7302 5.20084 14.5457 5.16887 14.0857C5.15473 13.8824 5.12748 13.6502 5.10829 13.5697C5.08909 13.4892 5.06116 13.3003 5.04622 13.15C5.03127 12.9997 4.99697 12.7615 4.97002 12.6208C4.94304 12.4801 4.90293 12.1267 4.88086 11.8357C4.8588 11.5446 4.82455 11.2291 4.80474 11.1345C4.78491 11.0398 4.74635 10.7839 4.71902 10.5655C4.69171 10.3473 4.65817 10.1151 4.64453 10.0496C4.63087 9.98413 4.60719 9.75193 4.5919 9.53361C4.57661 9.31536 4.55319 9.08316 4.53988 9.01768C4.52654 8.95213 4.48866 8.69616 4.45568 8.44873C4.42271 8.20131 4.38368 7.95726 4.36891 7.90633C4.35414 7.85533 4.32446 7.57551 4.30292 7.28448C4.28138 6.99342 4.25305 6.68979 4.23996 6.60974C4.13087 5.94339 4.08892 5.5694 4.12082 5.54802C4.13922 5.53572 7.87191 5.52844 12.4157 5.53185L20.677 5.53809L20.6849 5.63934C20.6892 5.69501 20.67 5.8498 20.6423 5.98332C20.6145 6.11684 20.5845 6.31537 20.5755 6.42452C20.5666 6.53367 20.5376 6.73609 20.5111 6.87435C20.4847 7.0126 20.4519 7.29242 20.4383 7.49616C20.4247 7.69993 20.4016 7.93213 20.3871 8.01216C20.3726 8.09218 20.3297 8.38881 20.2919 8.67133C20.2339 9.10431 20.2154 9.19011 20.1743 9.21763C20.1361 9.24313 18.8257 9.25356 14.1603 9.26533C9.92486 9.27598 8.1873 9.28873 8.16797 9.30906C8.14907 9.32901 8.13869 9.89023 8.134 11.1453C8.12839 12.6357 8.13315 12.958 8.16101 12.9825C8.20698 13.0227 10.9258 13.0411 17.7865 13.0477C22.8549 13.0525 23.2733 13.0495 23.3116 13.0092C23.3414 12.9777 23.3624 12.8702 23.3865 12.6255C23.4049 12.4385 23.4317 12.22 23.4458 12.1399C23.4599 12.0599 23.4947 11.8099 23.5231 11.5843C23.5513 11.3587 23.585 11.1385 23.5977 11.0948C23.6105 11.0511 23.6387 10.7777 23.6604 10.4872C23.6821 10.1967 23.716 9.89901 23.7356 9.82566C23.7553 9.75238 23.784 9.56736 23.7994 9.41451C23.8149 9.26173 23.838 9.08316 23.8507 9.01761C23.903 8.75098 23.9231 8.59011 23.9482 8.23708C23.9627 8.03331 23.9915 7.75941 24.0122 7.62846C24.0328 7.49749 24.0777 7.1879 24.1118 6.9405C24.1459 6.69309 24.185 6.41328 24.1988 6.31868C24.2125 6.22408 24.2356 5.96212 24.2501 5.73657C24.2647 5.511 24.2925 5.27016 24.3119 5.20134C24.3312 5.13252 24.3657 4.91223 24.3885 4.7118C24.4113 4.51136 24.4463 4.28189 24.4662 4.20185C24.4861 4.12181 24.5136 3.88366 24.5271 3.67264C24.5408 3.46162 24.5737 3.14608 24.6003 2.97144C24.627 2.79681 24.6662 2.51992 24.6874 2.35616C24.7086 2.1924 24.7362 2.01033 24.7487 1.95158C24.7691 1.85611 24.7655 1.84061 24.7154 1.806C24.6664 1.77213 23.34 1.76726 14.1897 1.76745L3.72006 1.76763L3.69978 1.74219H0Z" fill="#FF6915"/>
</svg>
