<svg width="19" height="15" viewBox="0 0 19 15" fill="none" xmlns="http://www.w3.org/2000/svg">
<path opacity="0.8" d="M18.158 1.77419C17.4771 2.07373 16.7735 2.28111 16.0245 2.37327C16.7962 1.91244 17.3863 1.17512 17.6587 0.276498C16.9324 0.714286 16.138 1.01383 15.2982 1.19816C14.6172 0.46083 13.6412 0 12.5745 0C10.509 0 8.8521 1.70507 8.8521 3.7788C8.8521 4.07834 8.87479 4.35484 8.94289 4.63134C5.85604 4.49309 3.13236 2.97235 1.29387 0.691244C-0.0225752 3.08756 1.45275 5.06912 2.42874 5.73733C1.83861 5.73733 1.24848 5.553 0.749135 5.2765C0.749135 7.14286 2.04289 8.68664 3.72249 9.03226C3.35933 9.14747 2.54223 9.21659 2.04289 9.10138C2.51953 10.5991 3.90407 11.7051 5.51558 11.7281C4.24453 12.7419 2.38335 13.5484 0.00012207 13.2949C1.65703 14.3779 3.609 15 5.71986 15C12.5745 15 16.2968 9.23963 16.2968 4.26267C16.2968 4.10138 16.2968 3.94009 16.2741 3.7788C17.0458 3.20277 17.6814 2.53456 18.158 1.77419Z" fill="white"/>
</svg>
